<?xml version="1.0" encoding="utf-8"?>
<!-- Generator: Adobe Illustrator 16.0.4, SVG Export Plug-In . SVG Version: 6.00 Build 0)  -->
<!DOCTYPE svg PUBLIC "-//W3C//DTD SVG 1.1//EN" "http://www.w3.org/Graphics/SVG/1.1/DTD/svg11.dtd">
<svg version="1.1" xmlns="http://www.w3.org/2000/svg" xmlns:xlink="http://www.w3.org/1999/xlink" x="0px" y="0px" width="39px"
	 height="73px" viewBox="0 0 39 73" enable-background="new 0 0 39 73" xml:space="preserve">
<g id="Layer_1">
</g>
<g id="Layer_4" display="none">
</g>
<g id="Layer_3">
</g>
<g id="ipod_tab_logo">
	<path fill-rule="evenodd" clip-rule="evenodd" fill="#333333" d="M36.1011,1.1182H2.8989c-1.1309,0-2.0459,0.9102-2.0459,2.041
		v66.6836c0,1.127,0.915,2.0391,2.0459,2.0391h33.2021c1.1299,0,2.0459-0.9121,2.0459-2.0391V3.1592
		C38.147,2.0283,37.231,1.1182,36.1011,1.1182z M19.5015,3.4717c0.2988,0,0.54,0.2422,0.54,0.5371
		c0,0.3008-0.2412,0.5391-0.54,0.5391c-0.3008,0-0.542-0.2383-0.542-0.5391C18.9595,3.7139,19.2007,3.4717,19.5015,3.4717z
		 M35.9819,66.1885H3.019V6.8994h32.9629V66.1885z"/>
</g>
</svg>
