<?xml version="1.0" encoding="utf-8"?>
<!-- Generator: Adobe Illustrator 16.0.4, SVG Export Plug-In . SVG Version: 6.00 Build 0)  -->
<!DOCTYPE svg PUBLIC "-//W3C//DTD SVG 1.1//EN" "http://www.w3.org/Graphics/SVG/1.1/DTD/svg11.dtd">
<svg version="1.1" xmlns="http://www.w3.org/2000/svg" xmlns:xlink="http://www.w3.org/1999/xlink" x="0px" y="0px" width="35px"
	 height="73px" viewBox="0 0 35 73" enable-background="new 0 0 35 73" xml:space="preserve">
<g id="Layer_1">
</g>
<g id="Layer_4" display="none">
</g>
<g id="Layer_3">
</g>
<g id="ipod_tab_logo">
	<g>
		<path fill="#333333" d="M28.4321,1.0449H6.5669c-3.5703,0-6.0234,2.4062-6.0234,5.9092v59.0918c0,3.5,2.4531,5.9092,6.0234,5.9092
			h21.8652c3.5703,0,6.0244-2.4092,6.0244-5.9092V6.9541C34.4565,3.4512,32.0024,1.0449,28.4321,1.0449z M14.1528,6.2979h6.4707
			v1.3125h-6.4707V6.2979z M17.5005,69.9834c-1.5625,0-2.6777-1.0938-2.6777-2.625c0-1.5322,1.1152-2.625,2.6777-2.625
			c1.5615,0,2.6777,1.0928,2.6777,2.625C20.1782,68.8896,19.062,69.9834,17.5005,69.9834z M32.2251,62.543H2.9966V10.6738h29.2285
			V62.543z"/>
	</g>
</g>
</svg>
