<?xml version="1.0" encoding="utf-8"?>
<!-- Generator: Adobe Illustrator 16.0.4, SVG Export Plug-In . SVG Version: 6.00 Build 0)  -->
<!DOCTYPE svg PUBLIC "-//W3C//DTD SVG 1.1//EN" "http://www.w3.org/Graphics/SVG/1.1/DTD/svg11.dtd">
<svg version="1.1" xmlns="http://www.w3.org/2000/svg" xmlns:xlink="http://www.w3.org/1999/xlink" x="0px" y="0px" width="139px"
	 height="73px" viewBox="0 0 139 73" enable-background="new 0 0 139 73" xml:space="preserve">
<g id="Layer_1">
</g>
<g id="Layer_4" display="none">
</g>
<g id="Layer_3">
</g>
<g id="ipod_tab_logo">
	<path fill="#333333" d="M124.9199,67.1855V5.2676c0-2.3574-1.9316-4.2676-4.3105-4.2676H18.3926
		c-2.3848,0-4.3164,1.9102-4.3164,4.2676v61.918H0.5c0.1396,0.2402,0.3359,0.4004,0.5576,0.4004c0,0,6.7822,3.3008,13.5625,3.752
		C21.3965,71.793,38.0352,72,38.0352,72h29.4307h33.499c0,0,16.6367-0.207,23.4141-0.6621
		c6.7812-0.4512,13.5605-3.752,13.5605-3.752c0.2227,0,0.4219-0.1602,0.5605-0.4004H124.9199z M17.3574,3.6328h104.2871v63.1406
		H17.3574V3.6328z"/>
</g>
</svg>
