<?xml version="1.0" encoding="utf-8"?>
<!-- Generator: Adobe Illustrator 18.1.1, SVG Export Plug-In . SVG Version: 6.00 Build 0)  -->
<svg version="1.1" id="itunes_x5F_gift_x5F_cards" xmlns="http://www.w3.org/2000/svg" xmlns:xlink="http://www.w3.org/1999/xlink"
	 x="0px" y="0px" width="53px" height="38px" viewBox="0 0 53 38" enable-background="new 0 0 53 38" xml:space="preserve">
<path fill="#333333" d="M49.47,2C50.31,2,51,2.68,51,3.53v30.95c0,0.84-0.69,1.53-1.53,1.53H3.53C2.69,36,2,35.32,2,34.47V3.53
	C2,2.68,2.69,2,3.53,2H49.47 M49.47,0H3.53C1.58,0,0,1.58,0,3.53v30.95C0,36.42,1.58,38,3.53,38h45.94c1.95,0,3.53-1.58,3.53-3.53
	V3.53C53,1.58,51.42,0,49.47,0L49.47,0z M29.09,11.66c0.69-0.85,1.04-1.77,1.04-2.75c0-0.13,0-0.27-0.02-0.4
	c-0.49,0.03-1,0.18-1.55,0.45c-0.54,0.28-0.99,0.62-1.34,1.05c-0.71,0.82-1.06,1.71-1.06,2.65c0,0.13,0.01,0.26,0.02,0.37
	C27.27,13.13,28.24,12.67,29.09,11.66z M31.55,18.94c-0.02-1.6,0.7-2.84,2.13-3.74c-0.8-1.16-2-1.81-3.6-1.95
	c-0.59-0.05-1.31,0.08-2.17,0.4c-0.9,0.34-1.44,0.51-1.59,0.51c-0.21,0-0.69-0.14-1.44-0.43c-0.75-0.28-1.36-0.43-1.81-0.43
	c-0.84,0.02-1.63,0.24-2.34,0.68c-0.73,0.44-1.3,1.04-1.74,1.8c-0.55,0.94-0.82,2.07-0.82,3.38c0,1.14,0.2,2.32,0.61,3.55
	c0.38,1.13,0.86,2.12,1.45,2.97c0.55,0.8,1.01,1.37,1.38,1.7c0.58,0.55,1.16,0.81,1.74,0.79c0.38-0.01,0.87-0.15,1.49-0.4
	c0.62-0.26,1.19-0.38,1.73-0.38c0.51,0,1.07,0.13,1.69,0.38c0.61,0.26,1.13,0.38,1.56,0.38c0.61-0.02,1.17-0.28,1.69-0.77
	c0.34-0.3,0.78-0.85,1.32-1.64c0.4-0.57,0.74-1.2,1.02-1.89c0.12-0.28,0.23-0.59,0.34-0.9c-0.49-0.2-0.93-0.5-1.32-0.89
	C32,21.22,31.56,20.19,31.55,18.94z"/>
</svg>
