<?xml version="1.0" encoding="utf-8"?>
<!-- Generator: Adobe Illustrator 16.0.4, SVG Export Plug-In . SVG Version: 6.00 Build 0)  -->
<!DOCTYPE svg PUBLIC "-//W3C//DTD SVG 1.1//EN" "http://www.w3.org/Graphics/SVG/1.1/DTD/svg11.dtd">
<svg version="1.1" xmlns="http://www.w3.org/2000/svg" xmlns:xlink="http://www.w3.org/1999/xlink" x="0px" y="0px" width="66px"
	 height="73px" viewBox="0 0 66 73" enable-background="new 0 0 66 73" xml:space="preserve">
<g id="Layer_1">
</g>
<g id="Layer_4" display="none">
</g>
<g id="Layer_3">
</g>
<g id="ipod_tab_logo">
	<g>
		<path fill="#231F20" d="M5.8247,55.8301c-0.1533-0.7354,0.2144-1.5068,0.5205-1.9258c0.3887-0.5127,0.855-0.8057,1.562-0.9209
			c0.4478-0.0703,0.8784-0.0762,1.5122,0.167c0.5166,0.1973,0.9521,0.6865,1.4346,1.5234c0.0381,0.0674,0.6133,1.1787,0.707,1.3721
			c0.1055,0.2285,0.1455,0.333,0.271,0.5605c0.0908-0.0879,0.0659-0.0508,0.1523-0.1426c0.8096-0.8867,1.2256-1.8896,1.4141-2.916
			c0.0923-0.5068,0.1265-1.0039,0.1382-1.5361c0.0132-0.4756,0.0112-1.1562,0.0112-1.8818V23.1172
			c0-0.7178,0.002-1.4229-0.0112-1.8799c-0.0117-0.5439-0.0459-1.0283-0.1382-1.5488c-0.1885-1.0273-0.6045-2.0215-1.4141-2.9033
			c-0.0864-0.0898-0.0615-0.0498-0.1523-0.1338c-0.1064,0.2354-0.1655,0.333-0.271,0.5605c-0.0938,0.1914-0.668,1.3057-0.707,1.3721
			c-0.3579,0.6143-0.7437,1.1045-1.2109,1.4111c-0.4307,0.2832-1.1865,0.3555-1.6172,0.3154
			c-0.6489-0.0596-1.2383-0.4727-1.6606-0.9609c-0.6074-0.7041-0.7729-1.7109-0.3701-2.5049
			c0.4209-0.8291,1.1055-1.8105,1.2012-1.9639c-0.7476,0.0205-1.3047,0.1777-2.0244,0.501
			c-0.7197,0.3223-1.3452,0.7598-1.8604,1.2861v-0.002c-0.001,0.002-0.0229,0.0254-0.0459,0.0479
			c-0.0171,0.0195-0.0342,0.0371-0.0518,0.0537l0,0c-0.0029,0.0039-0.0073,0.0078-0.0083,0.0098
			c-0.5332,0.5781-0.9111,1.2383-1.145,1.9004c-0.2485,0.6836-0.3511,1.3555-0.3911,2.0215
			c-0.0337,0.6396-0.0288,1.4512-0.0288,2.4189v27.0117c0,0.9668-0.0049,1.7842,0.0288,2.4082
			c0.04,0.6758,0.1895,1.3301,0.3911,2.0205c0.2139,0.7334,0.6499,1.3691,1.1533,1.9121v0.0039
			c0.0156,0.0176,0.0327,0.0332,0.0498,0.0498c0.0068,0.0078,0.0137,0.0156,0.02,0.0234c0.0049,0.0039,0.0068,0.0078,0.0088,0.0098
			v-0.002c0.5166,0.5371,1.1523,0.9893,1.8794,1.3086c0.7197,0.3262,1.3594,0.5498,2.1074,0.5723
			c-0.1338-0.1973-0.2583-0.3652-0.3691-0.5166C6.8125,57.7822,6.0083,56.7021,5.8247,55.8301z M3.2139,31.1191v0.002
			c-0.5176-0.7021-0.8325-1.7168-0.8325-2.6162c0-0.9707,0.4028-1.9941,0.9209-2.7656c0.8525-1.1338,2.1914-1.8623,3.7109-1.8623
			c2.5537,0,4.6294,2.0674,4.6294,4.6279c0,2.5244-2.0757,4.5918-4.6294,4.5918C5.4419,33.0967,4.062,32.3193,3.2139,31.1191z
			 M5.0361,47.377c-0.0347-0.1982-0.0488-0.417-0.0576-0.7402c-0.0034-0.209-0.0034-0.4482-0.0015-0.8389v-5.2861
			c-0.002-0.375-0.002-0.6143,0.0015-0.835c0.0088-0.3271,0.0229-0.5293,0.0576-0.7207c0.0825-0.5361,0.2739-0.9746,0.6011-1.3535
			C6.355,36.7529,7.624,36.4658,8.644,36.957c0.6479,0.2832,1.1235,0.8486,1.3398,1.5205c0.0884,0.2852,0.1362,0.5742,0.1553,0.9297
			c0.0132,0.2773,0.0132,0.5625,0.0132,1.0967v5.3018c0,0.5537,0,0.8252-0.0132,1.0967c-0.019,0.376-0.0669,0.6572-0.1553,0.9307
			c-0.2163,0.6875-0.6899,1.2363-1.3379,1.541c-0.335,0.1582-0.7109,0.2393-1.0786,0.2393c-0.7417,0-1.4458-0.3223-1.9302-0.8975
			C5.3101,48.3477,5.1187,47.8906,5.0361,47.377z"/>
		<path fill="#231F20" d="M8.3496,48.4756c0.4756-0.2217,0.8247-0.6143,0.9814-1.125c0.0674-0.209,0.1064-0.4307,0.1206-0.7373
			c0.0137-0.2441,0.0117-0.4912,0.0117-0.9951v-4.9287c0-0.4844,0.002-0.7441-0.0117-0.9932
			c-0.0142-0.291-0.0532-0.5107-0.1206-0.7314C9.1743,38.46,8.8232,38.0635,8.3496,37.834
			c-0.2451-0.1221-0.5024-0.1836-0.7822-0.1836c-0.5454,0-1.063,0.2471-1.4126,0.6758c-0.2383,0.2578-0.377,0.5947-0.4399,0.9971
			c-0.0278,0.1553-0.0415,0.3271-0.0469,0.6084c-0.0039,0.2012-0.0039,0.4189-0.002,0.7637v4.917
			c-0.002,0.3623-0.002,0.5781,0.002,0.7695c0.0054,0.2754,0.019,0.46,0.0469,0.6221c0.063,0.3867,0.2017,0.7236,0.4399,1.001
			C6.688,48.627,7.605,48.8359,8.3496,48.4756z"/>
		<path fill="#231F20" d="M10.8091,28.5068c0-2.0791-1.6885-3.7686-3.79-3.7686c-2.1094,0-3.8013,1.6895-3.8013,3.7686
			c0,2.082,1.6919,3.7705,3.8013,3.7705C9.1206,32.2773,10.8091,30.5889,10.8091,28.5068z"/>
		<path fill="#231F20" d="M63.4663,42.2324c-0.002,0-0.0034,0-0.0034,0c-0.0117-0.0039-0.0498-0.0039-0.0933-0.0059
			c0.7822-4.4541,1.0059-9.3232-0.4121-13.4023c-0.3525-1.0107-1.314-2.5088-2.1074-3.3438
			c-0.0596,0.2275-0.1113,0.4463-0.1543,0.6514c-0.3262,1.6016-0.1387,2.5723,0.1245,3.916c0.1025,0.5088,0.2036,1.0312,0.29,1.6348
			c1.0596,7.5117-0.9521,14.1621-1.8071,16.5488c-0.0259,0.0859-0.0601,0.1543-0.105,0.2715
			c-1.1104,3.1484-2.6895,6.0391-4.6802,8.7715c-1.981,2.7412-4.4097,5.1475-7.146,6.9844
			c-2.7378,1.8477-5.7832,3.0938-8.8589,3.7344c-1.5342,0.332-3.0801,0.5117-4.5996,0.5762
			c-0.377,0.0137-0.7563,0.0273-1.1333,0.0273h-0.2632l-0.2954-0.0039c-0.1914-0.0039-0.3867-0.0098-0.5781-0.0137
			c-0.7178-0.0264-1.4585-0.0742-2.1724-0.1582c-1.4341-0.165-2.8081-0.4277-4.104-0.7949
			c-0.647-0.1855-1.2759-0.3945-1.8833-0.6279c-0.6089-0.2295-1.1924-0.4746-1.7554-0.7422l-0.2104-0.0996l-0.0957-0.0459
			c-0.001,0-0.0039-0.002-0.0088-0.0039c-0.001,0,0,0-0.002,0l-0.0273-0.0156l-0.0537-0.0264
			c-0.1465-0.0771-0.291-0.1514-0.4326-0.2236c-0.1436-0.0771-0.2891-0.1494-0.4287-0.2227l-0.2104-0.1055l-0.1953-0.1104
			c-0.251-0.1455-0.5044-0.291-0.7505-0.4326c-0.2476-0.1494-0.4917-0.3105-0.7319-0.458c-0.9561-0.6182-1.834-1.251-2.6021-1.9121
			c-0.3926-0.3115-0.7466-0.6562-1.0996-0.9678c-0.3296-0.332-0.6699-0.6416-0.9517-0.9727
			c-0.6055-0.6338-1.0918-1.2754-1.5225-1.8564c-0.2222-0.2949-0.4229-0.6035-0.6299-0.9092
			c-0.1797-0.2646-0.333-0.5361-0.4917-0.8135c-0.1553-0.2666-0.291-0.5342-0.4146-0.8174
			c-0.1289-0.2705-0.2651-0.5244-0.4048-0.7832c-0.064-0.1201-0.1245-0.249-0.1875-0.375
			c-0.1226-0.2451-0.2563-0.4941-0.4097-0.7061c-0.1777-0.2256-0.4077-0.4287-0.7017-0.5703
			c-0.2915-0.1396-0.6553-0.2051-1.019-0.1592c-0.5015,0.0596-0.957,0.3213-1.272,0.7256
			c-0.2524,0.3447-0.3701,0.7383-0.3701,1.1143c0,0.0586,0.0039,0.1182,0.0093,0.1777c0.0439,0.4131,0.2271,0.75,0.4116,1.0547
			c0.0879,0.1318,0.1895,0.2773,0.3159,0.4453c0.1963,0.2988,0.4097,0.5977,0.6201,0.8906
			c0.0547,0.0898,0.1299,0.1797,0.1992,0.2715c0.4287,0.6035,0.8638,1.2041,1.3452,1.7803c0.1655,0.208,0.3428,0.4209,0.5283,0.626
			c0.2661,0.3027,0.5381,0.6318,0.856,0.9492c0.1587,0.1641,0.3022,0.333,0.4658,0.5068c0.1733,0.167,0.3301,0.3369,0.5054,0.5117
			c0.1768,0.1758,0.3442,0.3516,0.5366,0.5244c0.1899,0.1758,0.3677,0.3496,0.5669,0.5352c0.396,0.3447,0.7959,0.7256,1.2461,1.0703
			c0.8745,0.7217,1.8564,1.415,2.9321,2.083c0.2681,0.1641,0.54,0.335,0.8203,0.499c0.2939,0.1592,0.5815,0.3184,0.8813,0.4805
			l0.2202,0.123l0.2173,0.1084c0.1426,0.0713,0.2842,0.1436,0.4316,0.2148c0.1436,0.0723,0.2881,0.1475,0.4341,0.2178l0.1382,0.0674
			l0.1196,0.0537l0.2344,0.1055c2.5381,1.1504,5.4819,1.9805,8.6382,2.3115c0.7905,0.085,1.583,0.1357,2.4194,0.1611
			c0.1943,0.002,0.3921,0.0039,0.5874,0.0078L32.48,71.29l0.3213-0.0039c0.4097-0.002,0.8232-0.0176,1.2378-0.0332
			c1.6562-0.084,3.3486-0.2891,5.0386-0.6562c3.3838-0.7324,6.7603-2.1396,9.7568-4.1934c3.0024-2.0449,5.6235-4.6914,7.7393-7.6543
			c2.123-2.9668,3.7861-6.0586,4.9517-9.4248c0.335-0.9844,0.7046-1.9873,0.9629-2.9805c0.0078-0.0264,0.0146-0.0576,0.021-0.0859
			c0.0708,0.0098,0.1406,0.0166,0.1675,0.0225c0.6797,0.1289,1.4043-0.6787,1.6206-1.7949
			C64.5151,43.3691,64.1421,42.3564,63.4663,42.2324z"/>
		<path fill="#231F20" d="M55.9653,25.4268c0.0728-0.3555,0.1626-0.7061,0.2432-1.0176c0.3442-1.3516,0.6201-2.418-0.1533-4.0811
			l-0.2832-0.6357c-0.0698-0.1553-0.1416-0.2891-0.2251-0.4326c-0.0771-0.1572-0.1597-0.3135-0.2295-0.4404
			c-0.626-1.0986-1.2793-2.0684-1.9429-2.959c-0.665-0.8857-1.5132-1.6914-2.1636-2.4092c-0.6538-0.6992-1.2837-1.1416-1.877-1.6787
			c-0.2964-0.2725-0.5825-0.5137-0.8545-0.7373c-0.2793-0.2295-0.5342-0.4512-0.7803-0.6396
			c-0.2476-0.1816-0.4775-0.3516-0.689-0.5068c-0.5474-0.3984-1.105-0.7656-1.668-1.127c-0.4863-0.3223-1.1406-0.1865-1.4624,0.3018
			c-0.3223,0.4785-0.1875,1.1377,0.3008,1.4512c0,0,0.0908,0.0615,0.2695,0.1816c0.0884,0.0615,0.1992,0.1338,0.3311,0.2256
			c0.0664,0.0449,0.1382,0.0928,0.2129,0.1406c0.0708,0.0479,0.1436,0.0986,0.2236,0.1543c0.1582,0.1094,0.332,0.2334,0.5273,0.3682
			c0.1943,0.1543,0.4028,0.3213,0.6318,0.499c0.2246,0.1709,0.4585,0.3662,0.7129,0.5723c0.2505,0.2227,0.5137,0.46,0.7866,0.7012
			c0.54,0.499,1.2988,1.1113,1.9678,1.7666c0.6304,0.6162,1.1445,1.1963,1.7515,2.042c0.6064,0.8232,1.2192,1.749,1.7725,2.7393
			c0.0801,0.1416,0.1357,0.2617,0.1978,0.3848c0.0615,0.1064,0.1206,0.2197,0.1812,0.3457c0.1206,0.2666,0.2324,0.54,0.3413,0.8115
			c0.2183,0.54,0.4033,1.1123,0.5991,1.752c0.0986,0.3174,0.1943,0.6299,0.3408,1.0205c0.2671,0.7061,0.7676,1.2646,0.895,1.4316
			C55.9365,25.5781,55.9492,25.502,55.9653,25.4268z"/>
		<path fill="#231F20" d="M6.5137,17.5547c-0.0054,0.0596-0.0093,0.1182-0.0093,0.1777c0,0.375,0.1177,0.7695,0.3701,1.1143
			c0.3149,0.4033,0.7705,0.666,1.272,0.7256c0.3638,0.0479,0.7275-0.0195,1.019-0.1592c0.2939-0.1416,0.5239-0.3447,0.7017-0.5703
			c0.1533-0.2148,0.2871-0.4609,0.4097-0.7061c0.063-0.127,0.1235-0.2549,0.1875-0.376c0.1396-0.2559,0.2759-0.5127,0.4048-0.7822
			c0.1235-0.2812,0.2593-0.5537,0.4146-0.8193c0.1587-0.2773,0.312-0.5479,0.4917-0.8115c0.207-0.3066,0.4077-0.6123,0.6299-0.9092
			c0.4307-0.582,0.917-1.2246,1.5225-1.8564c0.2817-0.3311,0.6221-0.6416,0.9517-0.9727c0.353-0.3135,0.707-0.6562,1.0996-0.9688
			c0.7681-0.6602,1.646-1.2939,2.6021-1.9102c0.2402-0.1494,0.4844-0.3096,0.7319-0.457c0.2461-0.1455,0.4995-0.2891,0.7505-0.4346
			l0.1953-0.1094l0.2104-0.1094c0.1396-0.0703,0.2852-0.1445,0.4287-0.2178c0.1416-0.0742,0.2861-0.1494,0.4326-0.2256
			l0.0537-0.0273l0.0273-0.0127c0.002,0,0.001,0,0.002,0c0.0049-0.0039,0.0078-0.0059,0.0088-0.0059l0.0957-0.0459l0.2104-0.0996
			c0.563-0.2686,1.1465-0.5156,1.7554-0.7432c0.6074-0.2334,1.2363-0.4414,1.8833-0.6279c1.2959-0.3672,2.6914-0.7119,4.104-0.9492
			c0.708-0.1182,3.4155-0.6963,9.0542,0.2871c6.7163,1.1719,15.126,7.7373,18.5674,15.1484
			c0.8516,1.8369,0.5435,3.0449,0.1855,4.4424c-0.084,0.3213-0.1655,0.6523-0.2363,0.9912c-0.4468,2.1855,0,3.2363,0.293,4.7256
			c0.0928,0.4707,0.2803,1.3037,0.3394,1.8301c1.0034,8.7109-1.8027,15.7871-1.8345,15.8604c-0.064,0.166-0.0928,0.248-0.0928,0.248
			c-0.2056,0.5322,0.1138,1.1445,0.6567,1.3496c0.5454,0.209,1.0508-0.0059,1.3169-0.6006
			c0.1606-0.4004,3.4058-8.1201,2.1245-17.1904c-0.0825-0.5898-0.1841-1.1084-0.2817-1.6074
			c-0.2656-1.3535-0.4746-2.4219-0.126-4.127c0.0591-0.2832,0.1348-0.5723,0.2104-0.877c0.3926-1.5352,0.8804-3.4453-0.335-6.0654
			C55.5747,11.0293,47.1196,3.8848,38.1445,2.1943c-4.8208-0.9111-8.6333-0.2812-9.416-0.1455
			c-3.1143,0.54-5.6504,1.2363-8.1885,2.3867L20.3057,4.541L20.186,4.5928l-0.1382,0.0684
			c-0.146,0.0713-0.2905,0.1455-0.4341,0.2168c-0.1475,0.0723-0.2891,0.1455-0.4316,0.2158l-0.2173,0.1094l-0.2202,0.1221
			c-0.2998,0.1631-0.5874,0.3223-0.8813,0.4824c-0.2803,0.1611-0.5522,0.333-0.8203,0.5c-1.0757,0.6641-2.0576,1.3594-2.9321,2.0801
			c-0.4502,0.3467-0.8501,0.7236-1.2461,1.0703c-0.1992,0.1836-0.377,0.3604-0.5669,0.5361
			c-0.1924,0.1719-0.3599,0.3486-0.5366,0.5244c-0.1753,0.1758-0.332,0.3447-0.5054,0.5107
			c-0.1636,0.1748-0.3071,0.3428-0.4658,0.5059c-0.3179,0.3193-0.5898,0.6484-0.856,0.9512
			c-0.1855,0.2031-0.3628,0.417-0.5283,0.626c-0.4814,0.5762-0.9165,1.1768-1.3452,1.7793
			c-0.0693,0.0928-0.1445,0.1807-0.1992,0.2725c-0.2104,0.293-0.4238,0.5908-0.6201,0.8896
			c-0.1265,0.1689-0.228,0.3164-0.3159,0.4463C6.7407,16.8037,6.5576,17.1416,6.5137,17.5547z"/>
	</g>
</g>
</svg>
