<?xml version="1.0" encoding="utf-8"?>
<!-- Generator: Adobe Illustrator 16.0.4, SVG Export Plug-In . SVG Version: 6.00 Build 0)  -->
<!DOCTYPE svg PUBLIC "-//W3C//DTD SVG 1.1//EN" "http://www.w3.org/Graphics/SVG/1.1/DTD/svg11.dtd">
<svg version="1.1" id="Layer_1" xmlns="http://www.w3.org/2000/svg" xmlns:xlink="http://www.w3.org/1999/xlink" x="0px" y="0px"
	 width="41px" height="62px" viewBox="-297 409.5 41 62" enable-background="new -297 409.5 41 62" xml:space="preserve">
<g>
	<path fill="#333333" d="M-259.171,445.192h-20.706c-1.426,0-2.588,1.159-2.588,2.585v20.643c0,1.416,1.158,2.58,2.588,2.58h20.706
		c1.42,0,2.588-1.154,2.588-2.58v-20.643C-256.583,446.352-257.741,445.192-259.171,445.192z M-269.524,467.48
		c-5.197,0-9.412-4.201-9.412-9.385c0-5.182,4.214-9.385,9.412-9.385s9.412,4.203,9.412,9.385
		C-260.112,463.279-264.327,467.48-269.524,467.48z"/>
	<ellipse fill="#333333" cx="-269.524" cy="458.097" rx="4.705" ry="4.692"/>
	<path fill="#333333" d="M-284.818,468.654c0-3.754,0-7.286,0-11.731h-2.353h-7.059v-44.577h23.53v30.5c1.176,0,1.764,0,2.353,0
		v-30.5c0-1.292-1.052-2.346-2.353-2.346h-23.53c-1.302,0-2.353,1.054-2.353,2.346v56.309c0,1.297,1.051,2.346,2.353,2.346h9.412
		c2.353,0,2.353,0,2.353,0C-283.891,471-284.818,471-284.818,468.654z"/>
</g>
</svg>
