<?xml version="1.0" encoding="utf-8"?>
<!-- Generator: Adobe Illustrator 18.1.1, SVG Export Plug-In . SVG Version: 6.00 Build 0)  -->
<svg version="1.1" xmlns="http://www.w3.org/2000/svg" xmlns:xlink="http://www.w3.org/1999/xlink" x="0px" y="0px" width="100px"
	 height="73px" viewBox="0 0 100 73" enable-background="new 0 0 100 73" xml:space="preserve">
<g id="FPO_Reference">
</g>
<g id="Layer_2">
	<g>
		<g>
			<path fill="#333333" d="M99.407,16.284c-0.146-0.472-0.519-2.528-2.556-3.867c-1.069-0.703-2.149-0.928-2.778-1.011
				c0,0-0.889-0.177-2.723-0.278C89.517,11.027,72.625,10.5,67.513,10.5S50,10.5,50,10.5s-12.4,0-17.513,0
				c-5.112,0-22.004,0.527-23.838,0.628c-1.834,0.101-2.723,0.278-2.723,0.278c-0.63,0.083-1.71,0.308-2.778,1.011
				c-2.037,1.339-2.41,3.395-2.556,3.867C0.188,17.593,0,24.827,0,24.827v11.621v11.621c0,0,0.188,7.234,0.593,8.543
				c0.146,0.472,0.519,2.528,2.556,3.867c1.069,0.703,2.149,0.928,2.778,1.011c0,0,0.889,0.177,2.723,0.278
				c1.834,0.101,18.726,0.733,23.838,0.733S50,62.5,50,62.5s12.4,0,17.513,0s22.004-0.632,23.838-0.733
				c1.834-0.101,2.723-0.278,2.723-0.278c0.63-0.083,1.71-0.308,2.778-1.011c2.037-1.339,2.41-3.395,2.556-3.867
				c0.404-1.309,0.593-8.543,0.593-8.543V36.448V24.827C100,24.827,99.812,17.593,99.407,16.284z M52.486,23.121h-4.972V11.019
				h4.972V23.121z"/>
		</g>
	</g>
</g>
<g id="Layer_3">
</g>
</svg>
