<?xml version="1.0" encoding="utf-8"?>
<!-- Generator: Adobe Illustrator 18.1.1, SVG Export Plug-In . SVG Version: 6.00 Build 0)  -->
<svg version="1.1" xmlns="http://www.w3.org/2000/svg" xmlns:xlink="http://www.w3.org/1999/xlink" x="0px" y="0px"
	 viewBox="0 0 66 73" enable-background="new 0 0 66 73" xml:space="preserve">
<g id="Layer_1">
</g>
<g id="Layer_4" display="none">
</g>
<g id="Layer_3">
	<g>
		<path fill="none" d="M23.447,33.674c0.64-0.806,0.957-1.681,0.957-2.616c0-0.059,0-0.119,0-0.185c0-0.062,0-0.126-0.012-0.183
			c-0.448,0.022-0.92,0.166-1.422,0.425c-0.502,0.262-0.912,0.588-1.236,0.987c-0.658,0.789-0.979,1.627-0.979,2.522
			c0,0.062,0,0.121,0,0.18c0,0.054,0.002,0.109,0.017,0.178C21.775,35.076,22.665,34.641,23.447,33.674z"/>
		<path fill="none" d="M36.251,31.728h-2.819v3.921h-2.124v2.141h2.124v7.717c0.02,0.541,0.074,1.019,0.163,1.441
			c0.087,0.42,0.262,0.769,0.517,1.048c0.252,0.274,0.613,0.485,1.063,0.633c0.457,0.141,1.053,0.213,1.792,0.213
			c0.316,0,0.621-0.017,0.917-0.049c0.297-0.037,0.601-0.067,0.912-0.099v-2.228c-0.198,0.052-0.393,0.082-0.591,0.089
			c-0.2,0.007-0.401,0.015-0.591,0.015c-0.309,0-0.561-0.037-0.747-0.116c-0.176-0.074-0.314-0.188-0.403-0.339
			c-0.096-0.153-0.151-0.339-0.176-0.556c-0.022-0.218-0.04-0.482-0.04-0.789v-6.98h2.547V35.65h-2.547V31.728z"/>
		<path fill="none" d="M25.731,40.575c-0.025-1.516,0.623-2.697,1.956-3.541c-0.754-1.095-1.854-1.713-3.315-1.847
			c-0.517-0.052-1.179,0.074-1.993,0.366c-0.868,0.324-1.357,0.487-1.464,0.487c-0.23,0-0.67-0.134-1.32-0.41
			c-0.655-0.272-1.209-0.408-1.669-0.408c-0.771,0.01-1.488,0.23-2.148,0.64c-0.67,0.418-1.197,0.987-1.597,1.706
			c-0.507,0.9-0.759,1.966-0.759,3.209c0,1.12,0.185,2.238,0.561,3.36c0.354,1.071,0.799,2.008,1.34,2.816
			c0.485,0.737,0.907,1.273,1.268,1.605c0.522,0.522,1.051,0.774,1.595,0.747c0.346-0.01,0.808-0.143,1.375-0.391
			c0.534-0.24,1.061-0.356,1.595-0.356c0.492,0,1.004,0.116,1.538,0.356c0.591,0.247,1.073,0.373,1.446,0.373
			c0.556-0.022,1.078-0.269,1.555-0.729c0.168-0.148,0.354-0.354,0.551-0.616c0.2-0.26,0.42-0.569,0.663-0.93
			c0.168-0.267,0.331-0.546,0.494-0.838c0.163-0.302,0.312-0.618,0.45-0.954c0.059-0.136,0.111-0.274,0.161-0.423
			c0.045-0.141,0.096-0.287,0.146-0.435c-0.447-0.198-0.853-0.477-1.211-0.838C26.144,42.728,25.744,41.744,25.731,40.575z"/>
		<polygon fill="none" points="46.541,45.685 46.489,45.685 43.25,35.652 40.187,35.652 44.833,48.722 47.997,48.722 52.569,35.652 
			49.656,35.652 		"/>
		<g>
			<path fill="#333333" d="M50.796,8H15.204C7.361,8,1,14.359,1,22.204v35.586C1,65.633,7.361,72,15.204,72h35.592
				C58.641,72,65,65.633,65,57.791V22.204C65,14.359,58.639,8,50.796,8z M20.754,34.624c0-0.895,0.321-1.733,0.979-2.522
				c0.324-0.398,0.734-0.724,1.236-0.987c0.502-0.26,0.974-0.403,1.422-0.425c0.012,0.057,0.012,0.121,0.012,0.183
				c0,0.067,0,0.126,0,0.185c0,0.935-0.316,1.81-0.957,2.616c-0.781,0.969-1.671,1.402-2.675,1.308
				c-0.015-0.067-0.017-0.124-0.017-0.178C20.754,34.745,20.754,34.688,20.754,34.624z M28.011,44.798
				c-0.049,0.148-0.101,0.287-0.161,0.423c-0.138,0.336-0.284,0.653-0.45,0.954c-0.163,0.294-0.326,0.571-0.494,0.838
				c-0.242,0.361-0.462,0.67-0.663,0.932c-0.198,0.26-0.381,0.465-0.551,0.613c-0.477,0.46-0.999,0.707-1.555,0.729
				c-0.373,0-0.855-0.126-1.446-0.373c-0.534-0.24-1.046-0.356-1.538-0.356c-0.534,0-1.061,0.116-1.595,0.356
				c-0.566,0.247-1.029,0.378-1.375,0.391c-0.546,0.027-1.075-0.225-1.597-0.747c-0.361-0.331-0.781-0.868-1.268-1.605
				c-0.541-0.806-0.984-1.746-1.34-2.816c-0.373-1.123-0.561-2.24-0.561-3.36c0-1.244,0.252-2.309,0.759-3.209
				c0.401-0.722,0.93-1.288,1.6-1.706c0.66-0.413,1.377-0.63,2.148-0.64c0.457,0,1.014,0.136,1.669,0.408
				c0.65,0.277,1.09,0.41,1.32,0.41c0.106,0,0.596-0.163,1.464-0.487c0.811-0.292,1.476-0.418,1.993-0.366
				c1.461,0.134,2.561,0.752,3.315,1.847c-1.333,0.843-1.98,2.025-1.956,3.541c0.012,1.169,0.413,2.154,1.211,2.952
				c0.361,0.361,0.766,0.64,1.211,0.838C28.107,44.511,28.053,44.659,28.011,44.798z M38.798,37.791h-2.547v6.98
				c0,0.304,0.017,0.569,0.04,0.789c0.027,0.218,0.079,0.401,0.176,0.556c0.089,0.151,0.227,0.265,0.403,0.339
				c0.185,0.079,0.438,0.116,0.747,0.116c0.19,0,0.391-0.005,0.591-0.015c0.198-0.007,0.393-0.037,0.591-0.089v2.228
				c-0.312,0.032-0.616,0.062-0.912,0.099c-0.297,0.035-0.601,0.049-0.917,0.049c-0.739,0-1.333-0.072-1.792-0.213
				c-0.45-0.146-0.808-0.356-1.063-0.633c-0.255-0.279-0.43-0.63-0.517-1.048c-0.089-0.423-0.146-0.902-0.163-1.441v-7.717h-2.124
				V35.65h2.124v-3.921h2.819v3.921h2.547V37.791z M47.997,48.722h-3.162l-4.648-13.069h3.063l3.239,10.033h0.052l3.115-10.033
				h2.915L47.997,48.722z"/>
		</g>
	</g>
</g>
<g id="ipod_tab_logo">
</g>
</svg>
