<?xml version="1.0" encoding="utf-8"?>
<!-- Generator: Adobe Illustrator 16.0.4, SVG Export Plug-In . SVG Version: 6.00 Build 0)  -->
<!DOCTYPE svg PUBLIC "-//W3C//DTD SVG 1.1//EN" "http://www.w3.org/Graphics/SVG/1.1/DTD/svg11.dtd">
<svg version="1.1" xmlns="http://www.w3.org/2000/svg" xmlns:xlink="http://www.w3.org/1999/xlink" x="0px" y="0px" width="57px"
	 height="57px" viewBox="0 0 57 57" enable-background="new 0 0 57 57" xml:space="preserve">
<g id="Layer_1">
	<g>
	</g>
</g>
<g id="Layer_4" display="none">
	<g display="inline">
		<path fill="#333333" d="M27.5771,1.3701c-15.4746,0-26.8838,11.2432-26.8838,26.7134c0,15.4707,11.4092,27.2861,26.8838,27.2861
			s27.1162-11.856,27.1162-27.3267C54.6934,12.5728,43.0518,1.3701,27.5771,1.3701z M27.5771,54.3701
			c-14.8984,0-25.8838-11.3921-25.8838-26.2866S12.6787,2.3696,27.5771,2.3696c14.9004,0,26.1162,10.7788,26.1162,25.6733
			S42.4775,54.3701,27.5771,54.3701z"/>
		<path fill="#333333" d="M37.9004,13.0674c-0.252,0-0.4473,0.0474-0.4473,0.0474s-14.1777,2.9033-15.3711,3.146
			c-1.1953,0.2432-1.1074,1.5732-1.1074,1.5732s0,10.1958,0,11.6626v2.3696v2.7134c0,1.6436-1.2285,1.6748-1.3223,1.6748
			c-0.0039,0-0.0059,0-0.0059,0h-3.3223c-1.8496,0-3.3496,1.4985-3.3496,3.3481s1.4336,3.3896,3.2832,3.3896h1.5391
			c2.5488,0,4.2871-2.1069,4.2871-3.9561h0.0039c0,0,0-2.7065,0-4.0952v-2.2944v-8.8896c0-0.9326,1.2695-1.188,1.2695-1.188
			l13.3359-2.5708c0.1816-0.0347,0.3379-0.0503,0.4746-0.0503c0.9824,0,0.8535,0.8149,0.8535,0.8149V31.626
			c0.0859,1.6323-1.1621,1.6685-1.293,1.6685c-0.0059,0-0.0098,0-0.0098,0l-3.377,0.021c-1.8477,0-3.3477,1.499-3.3477,3.3481
			c0,1.8496,1.5,3.3481,3.3477,3.3481l1.7891-0.021c2.5488,0,3.8848-2.0654,3.8848-3.9141c0,0,0-20.5635,0-21.9521
			C39.0156,13.2261,38.3613,13.0674,37.9004,13.0674z M21.0098,38.9487c-0.0039,0.0293-0.0039,0.0591-0.0039,0.0889
			c0,1.2349-1.252,2.9561-3.2871,2.9561l-1.5234,0.0288c-1.2598,0-2.2051-1.0732-2.2051-2.3911
			c0-1.2949,1.0547-2.3481,2.3496-2.3481l3.3125-0.0288c0.3945,0,0.8828-0.1333,1.3574-0.52V38.9487z M38.0156,19.0962
			c-0.2227-0.0923-0.498-0.1543-0.834-0.1543c-0.2051,0-0.4297,0.0234-0.6641,0.0688l-13.3262,2.5776
			c-0.3438,0.0693-0.793,0.2329-1.1855,0.5161V17.834c0-0.022-0.002-0.0439-0.002-0.0659
			c-0.0039-0.0469-0.0215-0.4609,0.3086-0.5278c1.1934-0.2422,15.3418-3.146,15.3672-3.1514c0,0,0.0996-0.0215,0.2207-0.0215
			c0.0469,0,0.084,0.0034,0.1133,0.0078c0,0.0137,0.002,0.0303,0.002,0.0493V19.0962z M38.0156,36.0767
			c0,1.127-0.7832,2.9141-2.8965,2.9141l-1.7773,0.021c-1.2949,0-2.3477-1.0532-2.3477-2.3481s1.0527-2.3481,2.3535-2.3481
			l3.3809-0.021c0.1875,0,0.75-0.0332,1.2871-0.3906V36.0767z"/>
	</g>
</g>
<g id="Layer_3">
	<g>
		<path fill="#333333" d="M27.7148,1.4468c-15.1934,0-26.9385,11.48-26.9385,26.9556s11.7246,27.0444,26.918,27.0444
			s27.1035-11.6016,27.1035-27.0771S42.9082,1.4468,27.7148,1.4468z M27.6943,54.4468c-14.6299,0-25.9365-11.145-25.9365-26.0444
			S13.0859,2.4468,27.7148,2.4468c14.6279,0,26.1016,11.0234,26.1016,25.9229S42.3213,54.4468,27.6943,54.4468z"/>
		<path fill="#333333" d="M37.9141,12.6509c-0.252,0-0.4453,0.0474-0.4453,0.0474s-14.291,2.7915-15.4863,3.0342
			c-1.1953,0.2432-1.1074,1.5737-1.1074,1.5737s0,10.6382,0,12.106v2.3701v2.5869c0,1.6436-1.2266,1.7822-1.3203,1.7905
			c-0.0039,0.0005-0.0059,0.0005-0.0059,0.0005l-3.1992,0.418c-1.8516,0.1616-3.3516,1.792-3.3516,3.6421
			s1.4336,3.2651,3.2852,3.103l1.1465-0.0864c2.5488-0.2231,4.5547-2.5293,4.5547-4.3789l0.0039-0.0005c0,0,0-2.8354,0-4.2246
			v-2.1675V23.231c0-0.9331,1.2695-1.1885,1.2695-1.1885l13.4648-2.4644c0.1797-0.0352,0.2871-0.0718,0.4219-0.0718
			c0.9844,0,0.8535,0.8154,0.8535,0.8154v9.6855c0.0859,1.6255-1.123,1.7988-1.2539,1.8105
			c-0.0078,0.0005-0.0117,0.001-0.0117,0.001l-3.3867,0.3906c-1.8477,0.1616-3.3477,1.792-3.3477,3.6416
			c0,1.8501,1.5,3.2183,3.3477,3.0566l1.8008-0.124c2.5488-0.2231,3.8828-2.4058,3.8828-4.2549c0-19.5596,0-19.5596,0-20.8208
			C39.0293,12.8096,38.377,12.6509,37.9141,12.6509z M20.9883,38.856c-0.002,0.0298-0.0039,0.0596-0.0039,0.0894
			c0,1.2349-1.5195,3.1133-3.5547,3.2915l-1.1465,0.0864c-1.2598,0.1104-2.2852-0.8721-2.2852-2.1904
			c0-1.2954,1.0547-2.4414,2.3516-2.5547l3.2051-0.4185c0.3926-0.0342,0.959-0.2188,1.4336-0.647V38.856z M38.0293,18.6816
			c-0.2227-0.0923-0.4961-0.1543-0.834-0.1543c-0.2051,0-0.4277,0.0234-0.6621,0.0688l-13.3633,2.436
			c-0.3438,0.0693-0.793,0.1763-1.1855,0.4595v-4.2153c0-0.022,0-0.0439-0.002-0.0659c-0.002-0.0469-0.0215-0.4609,0.3086-0.5278
			c1.1953-0.2427,15.377-3.0049,15.4023-3.0103c0.002,0,0.0996-0.0215,0.2207-0.0215c0.0488,0,0.0859,0.0034,0.1133,0.0078
			c0.002,0.0137,0.002,0.0303,0.002,0.0493V18.6816z M38.0293,34.6162c0,1.127-0.7832,2.9839-2.8945,3.1685l-1.7891,0.123
			c-1.2949,0.1133-2.3477-0.8486-2.3477-2.144s1.0527-2.4409,2.3535-2.5552l3.3926-0.3906c0.1875-0.0166,0.75-0.0991,1.2852-0.5034
			V34.6162z"/>
	</g>
</g>
<g id="ipod_tab_logo">
</g>
</svg>
