<?xml version="1.0" encoding="utf-8"?>
<!-- Generator: Adobe Illustrator 16.0.4, SVG Export Plug-In . SVG Version: 6.00 Build 0)  -->
<!DOCTYPE svg PUBLIC "-//W3C//DTD SVG 1.1//EN" "http://www.w3.org/Graphics/SVG/1.1/DTD/svg11.dtd">
<svg version="1.1" xmlns="http://www.w3.org/2000/svg" xmlns:xlink="http://www.w3.org/1999/xlink" x="0px" y="0px" width="32px"
	 height="54px" viewBox="0 0 32 54" enable-background="new 0 0 32 54" xml:space="preserve">
<g id="Dark">
</g>
<g id="Light">
	<g id="iPhone_1_">
		<path id="iPhone_Accessories" fill="#333333" d="M29,14H16c-2,0-3,1-3,3v31c0,2,1,3,3,3h13.045C31,51,32,50,32,48V17
			C32,15,31,14,29,14z M18.75,18h-2c-0.69,0-1.25-0.56-1.25-1.25s0.56-1.25,1.25-1.25h2c0.69,0,1.25,0.56,1.25,1.25
			S19.44,18,18.75,18z M15.593,12.988H23v-2.565C23,8.185,21.458,7,19.163,7H4.842C2.53,7,1,8.15,1,10.422V46.82
			c0,0.017,0.003,0.032,0.003,0.049C1.027,49.117,2.554,51,4.842,51h7.874C12.266,50.415,12,49.668,12,48.779V16.865
			C12,14.472,13.366,12.988,15.593,12.988z M7.5,11.5H5c-0.829,0-1.5-0.671-1.5-1.5S4.171,8.5,5,8.5h2.5C8.329,8.5,9,9.171,9,10
			S8.329,11.5,7.5,11.5z"/>
	</g>
</g>
</svg>
